<svg width="30" height="30" viewBox="0 0 30 30" fill="none" xmlns="http://www.w3.org/2000/svg">
<path d="M15 0.280029C6.87813 0.280029 0.280029 6.87813 0.280029 15C0.280029 23.1219 6.87813 29.72 15 29.72C23.1219 29.72 29.72 23.1219 29.72 15C29.72 6.87813 23.1219 0.280029 15 0.280029ZM15 1.56003C22.4301 1.56003 28.44 7.56993 28.44 15C28.44 22.4301 22.4301 28.44 15 28.44C7.56993 28.44 1.56003 22.4301 1.56003 15C1.56003 7.56993 7.56993 1.56003 15 1.56003ZM20.1138 9.23128C19.945 9.23527 19.7846 9.30581 19.6675 9.42753L15 14.095L10.3325 9.42753C10.2729 9.36622 10.2016 9.31749 10.1228 9.28421C10.044 9.25093 9.95931 9.23378 9.87378 9.23378C9.74646 9.23381 9.62205 9.27181 9.51644 9.34293C9.41083 9.41404 9.32884 9.51503 9.28093 9.63299C9.23302 9.75095 9.22138 9.88052 9.24749 10.0051C9.27361 10.1297 9.33629 10.2437 9.42753 10.3325L14.095 15L9.42753 19.6675C9.36611 19.7265 9.31707 19.7971 9.28328 19.8753C9.2495 19.9535 9.23165 20.0376 9.23079 20.1227C9.22992 20.2079 9.24605 20.2923 9.27824 20.3712C9.31042 20.45 9.35801 20.5216 9.41822 20.5818C9.47843 20.642 9.55005 20.6896 9.62889 20.7218C9.70772 20.754 9.79218 20.7701 9.87733 20.7693C9.96248 20.7684 10.0466 20.7506 10.1248 20.7168C10.2029 20.683 10.2736 20.634 10.3325 20.5725L15 15.905L19.6675 20.5725C19.7265 20.634 19.7971 20.683 19.8753 20.7168C19.9535 20.7506 20.0376 20.7684 20.1227 20.7693C20.2079 20.7701 20.2923 20.754 20.3712 20.7218C20.45 20.6896 20.5216 20.642 20.5818 20.5818C20.642 20.5216 20.6896 20.45 20.7218 20.3712C20.754 20.2923 20.7701 20.2079 20.7693 20.1227C20.7684 20.0376 20.7506 19.9535 20.7168 19.8753C20.683 19.7971 20.634 19.7265 20.5725 19.6675L15.905 15L20.5725 10.3325C20.6655 10.2432 20.7293 10.1278 20.7555 10.0015C20.7818 9.8753 20.7693 9.74407 20.7197 9.62503C20.6701 9.506 20.5858 9.40472 20.4776 9.33446C20.3695 9.2642 20.2427 9.22824 20.1138 9.23128Z" fill="white"/>
</svg>
